<svg width="24" height="24" viewBox="0 0 24 24" fill="none" xmlns="http://www.w3.org/2000/svg">
<path fill-rule="evenodd" clip-rule="evenodd" d="M6 1.25C4.48122 1.25 3.25 2.48122 3.25 4V22C3.25 22.2531 3.37766 22.4891 3.58949 22.6277C3.80132 22.7662 4.06873 22.7886 4.30061 22.6871L8 21.0686L11.6994 22.6871C11.891 22.771 12.109 22.771 12.3006 22.6871L16 21.0686L19.6994 22.6871C19.9313 22.7886 20.1987 22.7662 20.4105 22.6277C20.6223 22.4891 20.75 22.2531 20.75 22V4C20.75 2.48122 19.5188 1.25 18 1.25H6Z" fill="#ECEFF1"/>
<path fill-rule="evenodd" clip-rule="evenodd" d="M5.75 11C5.75 10.5858 6.08579 10.25 6.5 10.25H13C13.4142 10.25 13.75 10.5858 13.75 11C13.75 11.4142 13.4142 11.75 13 11.75H6.5C6.08579 11.75 5.75 11.4142 5.75 11Z" fill="#8B98A6"/>
<path fill-rule="evenodd" clip-rule="evenodd" d="M5.75 15C5.75 14.5858 6.08579 14.25 6.5 14.25H13C13.4142 14.25 13.75 14.5858 13.75 15C13.75 15.4142 13.4142 15.75 13 15.75H6.5C6.08579 15.75 5.75 15.4142 5.75 15Z" fill="#8B98A6"/>
<path fill-rule="evenodd" clip-rule="evenodd" d="M14.75 11C14.75 10.5858 15.0858 10.25 15.5 10.25H17.5C17.9142 10.25 18.25 10.5858 18.25 11C18.25 11.4142 17.9142 11.75 17.5 11.75H15.5C15.0858 11.75 14.75 11.4142 14.75 11Z" fill="#8B98A6"/>
<path fill-rule="evenodd" clip-rule="evenodd" d="M14.75 15C14.75 14.5858 15.0858 14.25 15.5 14.25H17.5C17.9142 14.25 18.25 14.5858 18.25 15C18.25 15.4142 17.9142 15.75 17.5 15.75H15.5C15.0858 15.75 14.75 15.4142 14.75 15Z" fill="#8B98A6"/>
<path fill-rule="evenodd" clip-rule="evenodd" d="M5.75 7C5.75 6.58579 6.08579 6.25 6.5 6.25H13C13.4142 6.25 13.75 6.58579 13.75 7C13.75 7.41421 13.4142 7.75 13 7.75H6.5C6.08579 7.75 5.75 7.41421 5.75 7Z" fill="#8B98A6"/>
<path fill-rule="evenodd" clip-rule="evenodd" d="M14.75 7C14.75 6.58579 15.0858 6.25 15.5 6.25H17.5C17.9142 6.25 18.25 6.58579 18.25 7C18.25 7.41421 17.9142 7.75 17.5 7.75H15.5C15.0858 7.75 14.75 7.41421 14.75 7Z" fill="#8B98A6"/>
</svg>
